<svg id="Layer_1" data-name="Layer 1" xmlns="http://www.w3.org/2000/svg" viewBox="0 0 1333.43 467.98"><defs><style>.cls-1{fill:#e3403a;}.cls-2{fill:none;}</style></defs><title>logo</title><path class="cls-1" d="M8.41,92.08V346.3q0,21,3.95,36.76a56.54,56.54,0,0,0,14.44,26.47q10.49,10.74,28.89,16t47.68,5.23H1198.79c58,0,128.62,29.85,128.62,29.85s-31.05-67.11-31.05-133.18V92.08a153.72,153.72,0,0,0-3.94-36.53q-3.94-16-14-26.69t-28-16.2q-18-5.46-45.95-5.46H100.31q-28,0-46,5.46t-28,16.2q-10.07,10.71-14,26.69T8.41,92.08ZM28.1,219q16.21-10.08,23-25.61t6.78-41.78V89c0-7.88.81-14.38,2.39-19.47a26.4,26.4,0,0,1,7.65-12.25q5.27-4.62,14-6.35a112,112,0,0,1,21.42-1.76h1098A112.17,112.17,0,0,1,1222.84,51q8.74,1.74,14,6.35a26.13,26.13,0,0,1,7.65,12.25q2.4,7.64,2.42,19.47V151.6q0,26.24,6.77,41.78t23,25.61q-16.19,10.06-23,25.8t-6.77,41.57v63q0,23.19-10.07,31.3t-35.45,8.09h-1098q-25.35,0-35.46-8.09t-10-31.3v-63q0-25.81-6.78-41.57T28.1,219Z"/><path class="cls-2" d="M28.1,219q16.21-10.08,23-25.61t6.78-41.78V89c0-7.88.81-14.38,2.39-19.47a26.4,26.4,0,0,1,7.65-12.25q5.27-4.62,14-6.35a112,112,0,0,1,21.42-1.76h1098A112.17,112.17,0,0,1,1222.84,51q8.74,1.74,14,6.35a26.13,26.13,0,0,1,7.65,12.25q2.4,7.64,2.42,19.47V151.6q0,26.24,6.77,41.78t23,25.61q-16.19,10.06-23,25.8t-6.77,41.57v63q0,23.19-10.07,31.3t-35.45,8.09h-1098q-25.35,0-35.46-8.09t-10-31.3v-63q0-25.81-6.78-41.57T28.1,219Z"/><path class="cls-1" d="M281.11,285a42.23,42.23,0,0,1,1.81,6.89,4.17,4.17,0,0,1-1,3.81q-1.33,1.27-4.72,1.57t-9.31.3q-6.17,0-9.62-.18a23.7,23.7,0,0,1-5.26-.73,4.78,4.78,0,0,1-2.54-1.51,8.23,8.23,0,0,1-1.21-2.54l-10.52-31.45H180l-9.92,30.6a9.76,9.76,0,0,1-1.27,2.84,5.17,5.17,0,0,1-2.54,1.81,18.6,18.6,0,0,1-5,.91q-3.21.24-8.41.24a80.7,80.7,0,0,1-8.71-.36q-3.15-.36-4.35-1.75a4.72,4.72,0,0,1-.85-3.93,39.39,39.39,0,0,1,1.81-6.77l48.26-138.87a12.16,12.16,0,0,1,1.69-3.33,6,6,0,0,1,3.08-1.94,24.42,24.42,0,0,1,5.87-.85q3.75-.18,9.92-.18,7.14,0,11.37.18a30.39,30.39,0,0,1,6.59.85,6.3,6.3,0,0,1,3.39,2,11.75,11.75,0,0,1,1.75,3.63ZM209.26,170.2h-.12L187,236.73H231.4Z"/><path class="cls-1" d="M525.06,292.5a3.76,3.76,0,0,1-.67,2.18,4.69,4.69,0,0,1-2.42,1.57,23.74,23.74,0,0,1-4.66,1,61.62,61.62,0,0,1-7.38.36,60.34,60.34,0,0,1-7.26-.36,22.38,22.38,0,0,1-4.6-1,5,5,0,0,1-2.42-1.57,3.53,3.53,0,0,1-.73-2.18V165.12h-.24L449.34,292.38a5.87,5.87,0,0,1-1.57,2.6,7.67,7.67,0,0,1-3,1.63,19.9,19.9,0,0,1-4.78.79q-2.9.18-7,.18a69.58,69.58,0,0,1-7-.3,21.2,21.2,0,0,1-4.78-1,8.85,8.85,0,0,1-3-1.63,4.66,4.66,0,0,1-1.45-2.3L373,165.12h-.24V292.5a3.76,3.76,0,0,1-.67,2.18,4.71,4.71,0,0,1-2.48,1.57,25.09,25.09,0,0,1-4.66,1,73.48,73.48,0,0,1-14.58,0,23.71,23.71,0,0,1-4.66-1,4.67,4.67,0,0,1-2.42-1.57,3.74,3.74,0,0,1-.67-2.18V153q0-6.17,3.27-9.44a11.77,11.77,0,0,1,8.71-3.27h20.81a43.68,43.68,0,0,1,9.56.91,18.54,18.54,0,0,1,6.89,3,17.16,17.16,0,0,1,4.84,5.56,40,40,0,0,1,3.39,8.53L434,251.61h.48l35.08-93A49.11,49.11,0,0,1,473,150a20,20,0,0,1,4.36-5.69,14.38,14.38,0,0,1,5.87-3.08,30.53,30.53,0,0,1,7.86-.91h21.41a16.72,16.72,0,0,1,5.62.85,9.58,9.58,0,0,1,3.87,2.48,10.84,10.84,0,0,1,2.3,4,17,17,0,0,1,.79,5.38Z"/><path class="cls-1" d="M630.75,292.5a3.36,3.36,0,0,1-.79,2.18,5.52,5.52,0,0,1-2.6,1.57,25.35,25.35,0,0,1-4.84,1,82.25,82.25,0,0,1-15.42,0,25.42,25.42,0,0,1-4.9-1,5.5,5.5,0,0,1-2.6-1.57,3.35,3.35,0,0,1-.79-2.18V144.68a3.36,3.36,0,0,1,.79-2.18,5.55,5.55,0,0,1,2.66-1.57,26.82,26.82,0,0,1,4.9-1,65.86,65.86,0,0,1,7.62-.36,67.2,67.2,0,0,1,7.74.36,25.42,25.42,0,0,1,4.84,1,5.54,5.54,0,0,1,2.6,1.57,3.37,3.37,0,0,1,.79,2.18Z"/><path class="cls-1" d="M808.65,153.39a50.73,50.73,0,0,1-.3,6,16.38,16.38,0,0,1-.91,4,5.33,5.33,0,0,1-1.51,2.24,3.13,3.13,0,0,1-2,.73H764.74V292.5a3.36,3.36,0,0,1-.79,2.18,5.51,5.51,0,0,1-2.6,1.57,25.42,25.42,0,0,1-4.9,1,81.6,81.6,0,0,1-15.36,0,25.42,25.42,0,0,1-4.9-1,5.5,5.5,0,0,1-2.6-1.57,3.35,3.35,0,0,1-.79-2.18V166.33H693.61a3,3,0,0,1-2.06-.73,5.64,5.64,0,0,1-1.45-2.24,16.2,16.2,0,0,1-.91-4,50.32,50.32,0,0,1-.3-6,53.2,53.2,0,0,1,.3-6.17,16.35,16.35,0,0,1,.91-4.05,5.12,5.12,0,0,1,1.45-2.18,3.23,3.23,0,0,1,2.06-.67H803.93a3.31,3.31,0,0,1,2,.67,4.87,4.87,0,0,1,1.51,2.18,16.52,16.52,0,0,1,.91,4.05A53.64,53.64,0,0,1,808.65,153.39Z"/><path class="cls-1" d="M981.11,292.14a4.25,4.25,0,0,1-.67,2.36,4.83,4.83,0,0,1-2.54,1.69,23.82,23.82,0,0,1-5.14,1,77,77,0,0,1-8.23.36,73.76,73.76,0,0,1-11.31-.6,11.19,11.19,0,0,1-5-1.81,8.58,8.58,0,0,1-2.36-2.9L898.61,218v74.27a3.72,3.72,0,0,1-.73,2.3,5.42,5.42,0,0,1-2.54,1.63,22.13,22.13,0,0,1-4.84,1,82.25,82.25,0,0,1-15.42,0,22.23,22.23,0,0,1-4.9-1,5.87,5.87,0,0,1-2.6-1.63,3.52,3.52,0,0,1-.79-2.3V144.8a3.53,3.53,0,0,1,.79-2.3,5.53,5.53,0,0,1,2.6-1.57,25.5,25.5,0,0,1,4.9-1,82.14,82.14,0,0,1,15.42,0,25.42,25.42,0,0,1,4.84,1,5.12,5.12,0,0,1,2.54,1.57,3.73,3.73,0,0,1,.73,2.3v66.65l45.85-66.53a8.17,8.17,0,0,1,5.2-4.23,23.34,23.34,0,0,1,5-.85q3-.24,7.74-.24a71.89,71.89,0,0,1,8,.36,23.65,23.65,0,0,1,5,1,5.46,5.46,0,0,1,2.6,1.63,3.54,3.54,0,0,1,.73,2.18A9.42,9.42,0,0,1,977.6,149q-1.09,2.18-4.11,6.9l-42.94,56.25,46.81,70.77a55.85,55.85,0,0,1,3.21,6.59A8.77,8.77,0,0,1,981.11,292.14Z"/><path class="cls-1" d="M1156.23,292.14a4.25,4.25,0,0,1-.67,2.36,4.83,4.83,0,0,1-2.54,1.69,23.82,23.82,0,0,1-5.14,1,77,77,0,0,1-8.23.36,73.76,73.76,0,0,1-11.31-.6,11.19,11.19,0,0,1-5-1.81,8.58,8.58,0,0,1-2.36-2.9L1073.73,218v74.27a3.72,3.72,0,0,1-.73,2.3,5.42,5.42,0,0,1-2.54,1.63,22.13,22.13,0,0,1-4.84,1,82.25,82.25,0,0,1-15.42,0,22.23,22.23,0,0,1-4.9-1,5.87,5.87,0,0,1-2.6-1.63,3.52,3.52,0,0,1-.79-2.3V144.8a3.53,3.53,0,0,1,.79-2.3,5.53,5.53,0,0,1,2.6-1.57,25.5,25.5,0,0,1,4.9-1,82.14,82.14,0,0,1,15.42,0,25.42,25.42,0,0,1,4.84,1,5.12,5.12,0,0,1,2.54,1.57,3.73,3.73,0,0,1,.73,2.3v66.65l45.85-66.53a8.17,8.17,0,0,1,5.2-4.23,23.34,23.34,0,0,1,5-.85q3-.24,7.74-.24a71.89,71.89,0,0,1,8,.36,23.65,23.65,0,0,1,5,1,5.46,5.46,0,0,1,2.6,1.63,3.54,3.54,0,0,1,.73,2.18,9.42,9.42,0,0,1-1.09,4.23q-1.09,2.18-4.11,6.9l-42.94,56.25,46.81,70.77a55.85,55.85,0,0,1,3.21,6.59A8.77,8.77,0,0,1,1156.23,292.14Z"/></svg>